<svg width="30" height="30" viewBox="0 0 30 30" fill="none" xmlns="http://www.w3.org/2000/svg">
<rect width="30" height="30" rx="10" fill="#292D32"/>
<g clip-path="url(#clip0_1923_4394)">
<path d="M16.6148 15.2823L21.1179 10.5308C21.5527 10.0649 21.5527 9.31959 21.0868 8.88481C20.621 8.45002 19.8757 8.45002 19.4409 8.91586L15.0309 13.5742L10.59 8.94692C10.1552 8.48108 9.40983 8.45002 8.94399 8.88481C8.47815 9.35064 8.44709 10.096 8.88188 10.5618L13.385 15.3134L8.88188 20.0339C8.44709 20.4997 8.44709 21.2451 8.91293 21.6798C9.37877 22.1146 10.1241 22.1146 10.5589 21.6488L14.9688 16.9904L19.3788 21.6488C19.8136 22.1146 20.5589 22.1457 21.0247 21.6798C21.4906 21.2451 21.5216 20.4997 21.0558 20.0339L16.5527 15.2823H16.6148Z" fill="white"/>
</g>
<defs>
<clipPath id="clip0_1923_4394">
<rect width="12.8571" height="13.4162" fill="white" transform="translate(8.57129 8.57422)"/>
</clipPath>
</defs>
</svg>
