<svg width="20" height="20" viewBox="0 0 20 20" fill="none" xmlns="http://www.w3.org/2000/svg">
<g clip-path="url(#clip0_1923_4940)">
<path d="M19.9973 10.0014C20.0219 15.4962 15.5264 20.0055 10.0096 20C4.46545 19.9973 0.00822477 15.5318 1.12165e-05 10.0123C-0.00820233 4.45449 4.49556 0.00548069 10.0041 4.98776e-06C15.5154 -0.00547071 20.0219 4.49829 19.9973 10.0014ZM5.16907 7.36756C5.25668 7.36756 5.31965 7.36756 5.38536 7.36756C6.38468 7.36756 7.38399 7.36756 8.38331 7.36756C8.47366 7.36756 8.55853 7.35661 8.55579 7.4935C8.55032 7.88775 8.55579 8.28474 8.55579 8.68173C8.55579 8.76386 8.52568 8.79672 8.4408 8.80493C7.89597 8.85148 7.35114 8.89528 6.80905 8.95825C6.18482 9.02944 5.56332 9.13074 4.97469 9.35524C4.71459 9.45654 4.45997 9.59617 4.2382 9.76592C4.00549 9.94388 3.98906 10.204 4.15607 10.4449C4.3395 10.7105 4.63245 10.8309 4.92267 10.9322C5.86722 11.258 6.85285 11.373 7.84395 11.4497C8.0356 11.4634 8.22725 11.4798 8.4189 11.4935C8.5202 11.5017 8.55579 11.5483 8.55579 11.6496C8.55032 11.9398 8.55579 12.2272 8.55579 12.5175C8.55579 13.6126 8.55579 14.7077 8.55579 15.8056C8.55579 15.937 8.5777 16.0137 8.73649 16.0137C9.52225 16.0082 10.308 16.011 11.0938 16.0137C11.2142 16.0137 11.2498 15.9699 11.2498 15.8522C11.2471 14.6393 11.2471 13.4264 11.2471 12.2163C11.2471 12.0274 11.2471 11.8412 11.2471 11.6523C11.2471 11.5729 11.2608 11.5209 11.3621 11.5127C12.0219 11.4552 12.6845 11.4059 13.3416 11.3265C14.0424 11.2416 14.7351 11.1102 15.3785 10.8145C15.5592 10.7324 15.7153 10.5791 15.8576 10.4367C16.0219 10.2752 15.9398 9.90829 15.7919 9.77413C15.4333 9.4538 14.9925 9.31965 14.5462 9.2074C13.5359 8.95551 12.5038 8.85421 11.4661 8.80767C11.2635 8.79946 11.2471 8.78577 11.2444 8.59138C11.2444 8.25189 11.2498 7.91239 11.2416 7.5729C11.2362 7.42232 11.28 7.3703 11.436 7.37304C12.4463 7.37851 13.4538 7.37304 14.4641 7.37851C14.5982 7.37851 14.6366 7.34292 14.6366 7.20877C14.6311 6.48324 14.6311 5.7577 14.6366 5.03217C14.6366 4.89528 14.59 4.84874 14.4641 4.85969C14.4175 4.86517 14.3737 4.85969 14.3272 4.85969C11.3648 4.85969 8.40247 4.85969 5.44012 4.85969C5.39358 4.85969 5.34977 4.86243 5.30323 4.85969C5.19645 4.85148 5.16634 4.90076 5.16634 5.0048C5.17181 5.48118 5.16634 5.95757 5.16634 6.43395C5.16634 6.73786 5.16634 7.04176 5.16634 7.37304L5.16907 7.36756Z" fill="#27A17C"/>
<path d="M5.16899 7.36645C5.16899 7.03517 5.16899 6.73127 5.16899 6.42736C5.16899 5.95098 5.16899 5.47459 5.16899 4.99821C5.16899 4.89417 5.19911 4.84489 5.30588 4.8531C5.35243 4.85584 5.39623 4.8531 5.44278 4.8531C8.40513 4.8531 11.3675 4.8531 14.3298 4.8531C14.3764 4.8531 14.4202 4.85584 14.4667 4.8531C14.5954 4.84215 14.642 4.88869 14.6392 5.02558C14.6337 5.75112 14.6337 6.47664 14.6392 7.20218C14.6392 7.33633 14.6009 7.37192 14.4667 7.37192C13.4565 7.36645 12.4489 7.37192 11.4387 7.36645C11.2799 7.36645 11.2388 7.41573 11.2443 7.56631C11.2552 7.9058 11.2443 8.2453 11.247 8.58479C11.247 8.77918 11.2662 8.79287 11.4688 8.80108C12.5064 8.84762 13.5386 8.94892 14.5489 9.20081C14.9951 9.31306 15.4359 9.44721 15.7946 9.76754C15.9424 9.9017 16.0218 10.2686 15.8603 10.4301C15.7152 10.5725 15.5619 10.7258 15.3812 10.8079C14.735 11.1036 14.0424 11.2378 13.3442 11.3199C12.6871 11.3993 12.0246 11.4486 11.3647 11.5061C11.2662 11.5143 11.2498 11.5663 11.2498 11.6457C11.2498 11.8346 11.2498 12.0208 11.2498 12.2097C11.2498 13.4226 11.2498 14.6354 11.2525 15.8456C11.2525 15.9633 11.2169 16.0071 11.0964 16.0071C10.3107 16.0044 9.52491 16.0016 8.73915 16.0071C8.58035 16.0071 8.55845 15.9304 8.55845 15.799C8.55845 14.7039 8.55845 13.6087 8.55845 12.5109C8.55845 12.2207 8.55571 11.9332 8.55845 11.643C8.55845 11.5417 8.52286 11.4924 8.42156 11.4869C8.22991 11.4732 8.03826 11.4595 7.84661 11.4431C6.85551 11.3664 5.87262 11.2515 4.92532 10.9257C4.63237 10.8244 4.34216 10.7039 4.15872 10.4383C3.99171 10.1974 4.00814 9.93729 4.24086 9.75933C4.46262 9.58958 4.71724 9.44995 4.97734 9.34865C5.56598 9.12141 6.18747 9.02011 6.8117 8.95166C7.35379 8.89143 7.89863 8.84762 8.44346 8.79834C8.52833 8.79013 8.55845 8.75727 8.55845 8.67514C8.55845 8.27815 8.55571 7.8839 8.55845 7.48691C8.55845 7.35276 8.47631 7.36097 8.38596 7.36097C7.38665 7.36097 6.38733 7.36097 5.38802 7.36097C5.32231 7.36097 5.25934 7.36097 5.17173 7.36097L5.16899 7.36645ZM9.97392 10.7121C9.97392 10.7121 9.97392 10.6957 9.97392 10.6875C9.54955 10.6875 9.12245 10.6847 8.69808 10.6875C8.56666 10.6875 8.55024 10.6218 8.55297 10.5177C8.55571 10.1207 8.55297 9.72647 8.55571 9.32949C8.55571 9.20902 8.50917 9.1789 8.40239 9.18986C8.21622 9.21176 8.03004 9.21997 7.84387 9.24735C7.22238 9.3377 6.60089 9.41436 5.98487 9.52935C5.5386 9.61148 5.09507 9.73469 4.69534 9.97014C4.49 10.0906 4.49274 10.1837 4.69534 10.3069C4.73915 10.3343 4.78295 10.3589 4.8295 10.3753C5.07043 10.4602 5.30862 10.556 5.55503 10.619C6.69945 10.9065 7.87125 11.0133 9.04579 11.0406C9.9657 11.0625 10.8884 11.0187 11.811 10.9886C12.6159 10.9612 13.4154 10.8545 14.2012 10.6765C14.5653 10.5944 14.9185 10.4657 15.2662 10.3261C15.5181 10.2248 15.5126 10.0879 15.2717 9.95098C15.143 9.87706 15.0033 9.81682 14.861 9.77028C13.7385 9.38698 12.5749 9.26378 11.4003 9.18986C11.2799 9.18164 11.2388 9.22545 11.2415 9.34591C11.247 9.73195 11.2415 10.118 11.2415 10.5013C11.2415 10.6957 11.2251 10.7121 11.0362 10.7121C10.6803 10.7121 10.3271 10.7121 9.97118 10.7121H9.97392Z" fill="white"/>
<path d="M9.97398 10.7166C10.3299 10.7166 10.6831 10.7166 11.039 10.7166C11.2279 10.7166 11.2443 10.7001 11.2443 10.5057C11.2443 10.1197 11.2471 9.73366 11.2443 9.35036C11.2443 9.23264 11.2827 9.18609 11.4031 9.19431C12.5777 9.26823 13.7413 9.39143 14.8638 9.77473C15.0062 9.82401 15.1458 9.88424 15.2745 9.95543C15.5154 10.0923 15.5209 10.2292 15.269 10.3305C14.924 10.4701 14.5681 10.5988 14.204 10.681C13.4182 10.8617 12.6215 10.9684 11.8138 10.9931C10.8912 11.0232 9.96851 11.067 9.04859 11.0451C7.87405 11.0177 6.70499 10.9109 5.55783 10.6235C5.31142 10.5605 5.07323 10.4647 4.8323 10.3798C4.78576 10.3634 4.73921 10.336 4.69815 10.3113C4.49554 10.1881 4.49281 10.0951 4.69815 9.97459C5.09787 9.73914 5.53867 9.61594 5.98767 9.5338C6.60369 9.41881 7.22518 9.34215 7.84667 9.2518C8.03285 9.22442 8.21902 9.21621 8.40519 9.19431C8.51471 9.18062 8.56125 9.21347 8.55851 9.33394C8.55304 9.72819 8.55851 10.1252 8.55578 10.5222C8.55578 10.6262 8.56947 10.6946 8.70088 10.6919C9.12525 10.6864 9.55235 10.6919 9.97672 10.6919C9.97672 10.7001 9.97672 10.7083 9.97672 10.7166H9.97398Z" fill="#27A17C"/>
</g>
<defs>
<clipPath id="clip0_1923_4940">
<rect width="19.9973" height="20" fill="white"/>
</clipPath>
</defs>
</svg>
